<?xml version="1.0" encoding="UTF-8"?>
<svg id="Layer_2" data-name="Layer 2" xmlns="http://www.w3.org/2000/svg" viewBox="0 0 39.16 49.26">
  <defs>
    <style>
      .cls-1 {
        fill: #fff;
      }
    </style>
  </defs>
  <g id="Layer_1-2" data-name="Layer 1">
    <path class="cls-1" d="M2.97,28.83c5.58.66,10.54-2.63,13.21-7.42,3.28-5.89,2.27-12.9,1.34-19.26l-5.79,1.6c3.37,10.6,9.25,21.33,21.1,23.64v-5.79c-10.2,2.75-16.7,11.87-15.71,22.45l5.59-1.51c-2.66-5.25-3.42-11.78-7.97-15.9-3.5-3.16-7.97-4.43-12.57-3.69-3.8.61-2.19,6.39,1.6,5.79,9.25-1.48,10.78,10.93,13.77,16.83,1.3,2.57,5.87,1.45,5.59-1.51-.75-7.97,3.5-14.56,11.31-16.66,2.73-.73,2.99-5.2,0-5.79-9.79-1.91-14.14-10.77-16.91-19.45C16.32-1.63,11.19,0,11.74,3.74c.99,6.75,1.76,20.34-8.77,19.09-3.83-.46-3.79,5.55,0,6h0Z"/>
  </g>
</svg>