<?x    <path fill="#FFFFFF" stroke="#FFFFFF" d="M270.85,329.91c21.99-18.17,40.88-34.27,60.32-49.67,13.61-10.78,31.4-19.37,42.71-2.43,6.02,9.01,2,28.22-3.12,40.47-12.89,30.88-30.61,59.78-42.87,90.87-4.09,10.36-1.29,27.35,4.93,37.12,16.98,26.65,39.54,49.83,55.64,76.91,7.52,12.65,12.22,35.23,5.85,46.04-10.99,18.64-32.13,10.9-48.9,1.65-16.49-9.09-32.6-18.85-53.64-31.1-4.92,42.04-9.44,78.83-13.46,115.67-2.29,21.01-8.52,95.82-40.32,95.8-31.45,0-35.48-61.42-36.52-73.63-5.01-59.17-10.49-118.32-17.8-177.23-.88-7.08-13.23-17.1-21.28-18.18-39.81-5.36-79.9-9.6-120.01-11.24-18.57-.76-36.76.29-41.44-21.09-5.3-24.23,12.53-35.2,32.24-40.12,34.42-8.59,69.28-15.56,104.14-22.21,21.89-4.18,27.69-14.15,21.25-36.22-27.42-94.05-53.44-188.5-79.86-282.84-3.61-12.9-9.31-26.02-9.04-38.94.2-9.86,6.16-25.15,13.42-27.92,9.44-3.61,25.91-.89,33.56,5.77,11,9.56,18.28,24.44,24.55,38.23,38.15,83.91,75.52,168.17,113.3,252.25,4.3,9.57,9.52,18.72,16.35,32.06Z"/>l version="1.0" encoding="UTF-8"?>
<svg id="Layer_2" data-name="Layer 2" xmlns="http://www.w3.org/2000/svg" viewBox="0 0 397.3 751.24">
  <g id="Layer_1-2" data-name="Layer 1">
    <path fill="white" d="M270.85,329.91c21.99-18.17,40.88-34.27,60.32-49.67,13.61-10.78,31.4-19.37,42.71-2.43,6.02,9.01,2,28.22-3.12,40.47-12.89,30.88-30.61,59.78-42.87,90.87-4.09,10.36-1.29,27.35,4.93,37.12,16.98,26.65,39.54,49.83,55.64,76.91,7.52,12.65,12.22,35.23,5.85,46.04-10.99,18.64-32.13,10.9-48.9,1.65-16.49-9.09-32.6-18.85-53.64-31.1-4.92,42.04-9.44,78.83-13.46,115.67-2.29,21.01-8.52,95.82-40.32,95.8-31.45,0-35.48-61.42-36.52-73.63-5.01-59.17-10.49-118.32-17.8-177.23-.88-7.08-13.23-17.1-21.28-18.18-39.81-5.36-79.9-9.6-120.01-11.24-18.57-.76-36.76.29-41.44-21.09-5.3-24.23,12.53-35.2,32.24-40.12,34.42-8.59,69.28-15.56,104.14-22.21,21.89-4.18,27.69-14.15,21.25-36.22-27.42-94.05-53.44-188.5-79.86-282.84-3.61-12.9-9.31-26.02-9.04-38.94.2-9.86,6.16-25.15,13.42-27.92,9.44-3.61,25.91-.89,33.56,5.77,11,9.56,18.28,24.44,24.55,38.23,38.15,83.91,75.52,168.17,113.3,252.25,4.3,9.57,9.52,18.72,16.35,32.06Z"/>
  </g>
</svg>