<?xml version="1.0" encoding="UTF-8"?>
<svg id="Layer_2" data-name="Layer 2" xmlns="http://www.w3.org/2000/svg" viewBox="0 0 721.67 626.35">
  <g id="Layer_1-2" data-name="Layer 1">
    <g>
      <path fill="#ff0000" d="M163.47,281.62c-31.83-21.72-82.16-13.21-94.57-11.11-28.17,4.77-43.58,14.94-56.22,5.93-11.71-8.35-16.5-29.96-9.26-44.09,16.3-31.85,100.61-39.32,154.52-4.63,17.83,11.47,50.7,42.43,77.86,84.18,10.09,15.52,20.44,31.58,35.71,42.03,15.28,10.46,37,13.9,52.02,3.08,13.6-9.78,12.42-17.17,26.68-23.93,21.19-10.05,33.15,8.75,54.87.84,18.14-6.61,15.5-21.8,45.84-43.21,9.67-6.82,14.88-10.5,23.33-12.89,19.73-5.59,30.68,3.32,56.15,6.67,18.14,2.38,37.65,3.87,55.83-4.49,22.71-10.44,17.35-31.72,47.28-51.97,16.82-11.38,28.01-11.77,33.53-11.42,3.25.21,17.53,1.49,25.68,10.79,13.28,15.14,9.12,50.12-8.73,67.8-30.19,29.91-71.4,2.21-159.23,23.11-25.64,6.1-93.68,22.29-110.13,69.8-1.03,2.98-9.85,28.93,2.58,42.55,16.28,17.85,60.34,13.37,89.81-1.26,13.06-6.48,24.32-15.04,36.19-11.07,6.94,2.32,12.75,9.4,14.74,17.04,4.78,18.37-16.71,27.78-23,59-1.54,7.65-5.76,28.6,5.22,39.79,8.74,8.91,18.49,2.84,32.04,11.1,18.71,11.4,11.19,29.7,25.28,38.19,21.57,12.99,58.66-18.17,93.67-13.2,11.06,1.57,16.9,6.07,19.07,7.95,2.25,1.94,9.57,8.08,11.12,18.27.94,6.14-.53,11.59-1.7,14.21-5.46,12.21-27.71,14.65-79.82,15.51-41.43.68-61.81-.7-73.18-3.65-24.26-6.28-42.81-27.14-51.82-50.52-9.01-23.39-9.73-49.12-8.3-74.14.44-7.7,1-15.8-2.35-22.75-7.08-14.71-27.27-16.77-43.31-13.74-16.04,3.03-32.92,9-48.11,3.03-22.97-9.03-24.25-26.35-50.06-32.56-3.82-.92-18.97-4.35-33.87,2.43-26.03,11.86-40.1,49.82-31.03,75.75,6.9,19.74,23.55,22.08,27,45.57,2.02,13.76-4.19,24.91-5.57,27.52-13.5,25.59-48.14,30.15-107.67,38,0,0-20.62,2.83-82.91-3.32-4.6-.45-14.39-1.54-21.86-8.91-.83-.82-9.95-10.07-8.28-21,2.29-14.93,22.99-21.63,24.16-22,27.1-8.4,42.27,10.43,80.6,16.04,41.3,6.05,81.64-8.57,82.66-20.34.86-9.89-26.8-13.19-36.05-38.33-4.16-11.3-2.55-21.45-1.74-26.6,5.68-35.98,39.7-42.43,42.01-73.15.91-12.06-3.28-25.07-11.22-33.85-16.02-17.71-36.46-6.18-59.32-17.39-36.78-18.03-18.93-65.25-56.17-90.66Z"/>
      <path fill="#ff0000" d="M322.87,145.14c9.67-7.99,17.98-15.07,26.54-21.85,5.99-4.74,13.81-8.52,18.79-1.07,2.65,3.96.88,12.41-1.37,17.81-5.67,13.58-13.47,26.3-18.86,39.97-1.8,4.56-.57,12.03,2.17,16.33,7.47,11.72,17.39,21.92,24.48,33.83,3.31,5.56,5.37,15.5,2.57,20.25-4.83,8.2-14.13,4.79-21.51.73-7.25-4-14.34-8.29-23.6-13.68-2.17,18.5-4.15,34.68-5.92,50.89-1.01,9.24-3.75,42.16-17.74,42.14-13.84,0-15.61-27.02-16.06-32.39-2.2-26.03-4.62-52.05-7.83-77.97-.39-3.11-5.82-7.52-9.36-8-17.51-2.36-35.15-4.22-52.8-4.95-8.17-.33-16.17.13-18.23-9.28-2.33-10.66,5.51-15.49,14.18-17.65,15.14-3.78,30.48-6.84,45.82-9.77,9.63-1.84,12.18-6.23,9.35-15.93-12.06-41.37-23.51-82.93-35.13-124.43-1.59-5.67-4.09-11.45-3.98-17.13.09-4.34,2.71-11.07,5.9-12.28,4.15-1.59,11.4-.39,14.77,2.54,4.84,4.21,8.04,10.75,10.8,16.82,16.78,36.91,33.22,73.98,49.84,110.97,1.89,4.21,4.19,8.24,7.19,14.1Z"/>
    </g>
  </g>
</svg>